<svg xmlns="http://www.w3.org/2000/svg" viewBox="0 0 64 64" width="64" height="64"><rect width="64" height="64" rx="12" fill="#0d141d"/><rect x="1" y="1" width="62" height="62" rx="11" fill="none" stroke="#6f9fc8" stroke-opacity="0.28"/><g fill="none" stroke="#9fb6cd" stroke-width="2.2" stroke-linecap="round" stroke-linejoin="round"><circle cx="32" cy="17" r="5"/><path d="M32 26 C24 13 12 8 3 15 C11 20 15 27 19 36 C23 31 27 29 32 31 Z"/><path d="M32 26 C40 13 52 8 61 15 C53 20 49 27 45 36 C41 31 37 29 32 31 Z"/><path d="M32 31 L32 46"/><path d="M25 46 L32 59 L39 46 Z"/></g></svg>